<?xml version="1.0" encoding="UTF-8"?>
<!DOCTYPE svg PUBLIC "-//W3C//DTD SVG 1.1//EN" "http://www.w3.org/Graphics/SVG/1.1/DTD/svg11.dtd">
<!-- Creator: CorelDRAW -->
<svg xmlns="http://www.w3.org/2000/svg" xml:space="preserve" width="2048px" height="2048px" style="shape-rendering:geometricPrecision; text-rendering:geometricPrecision; image-rendering:optimizeQuality; fill-rule:evenodd; clip-rule:evenodd"
viewBox="0 0 2048 2048"
 xmlns:xlink="http://www.w3.org/1999/xlink">
 <defs>
  <style type="text/css">
   <![CDATA[
    .fil2 {fill:none}
    .fil1 {fill:#424242}
    .fil0 {fill:#424242;fill-rule:nonzero}
   ]]>
  </style>
 </defs>
 <g id="Layer_x0020_1">
  <metadata id="CorelCorpID_0Corel-Layer"/>
  <g id="_333740232">
   <path id="_333740736" class="fil0" d="M1431.14 1164.06l-453.76 -474.123 22.0547 -21.2162 -22.1693 21.2162c-11.7165,-12.2433 -11.2902,-31.6689 0.95315,-43.3843 5.37402,-5.1437 12.1311,-7.94646 19.0158,-8.4378l759.817 -106.906 -0.0106299 -0.0708662c16.7811,-2.35984 32.3008,9.32953 34.6607,26.1106 1.03465,7.36064 -0.633071,14.4803 -4.24961,20.3516l-305.479 581.241 0.0625985 0.0330709c-7.88386,15.0012 -26.4378,20.7697 -41.4378,12.8858 -3.75355,-1.97244 -6.92835,-4.61457 -9.45709,-7.69961zm-368.298 -473.345l384.721 401.986 258.861 -492.539 -643.582 90.5528z"/>
   <polygon id="_333741120" class="fil1" points="1498.25,1123.11 1575.53,1672.32 1484.48,1684.91 1407.21,1135.71 "/>
   <path id="_333740616" class="fil1" d="M1607 1698.69l-145.596 20.4862c-25.1433,3.53859 -48.378,-14.087 -51.854,-39.2209 -3.47244,-25.1067 14.1083,-48.2847 39.1902,-51.8138l145.596 -20.4862c25.1433,-3.5374 48.378,14.087 51.854,39.2209 3.47244,25.1079 -14.1083,48.2859 -39.1902,51.8138z"/>
   <path id="_333741168" class="fil1" d="M1599.54 737.58c-27.0272,8.30906 -54.078,17.7307 -81.2375,27.1902 -90.7489,31.6099 -182.652,63.6119 -283.912,60.8138l205.853 215.092 159.297 -303.096z"/>
   <g>
    <path id="_333740880" class="fil0" d="M540.71 965.033l-281.626 -592.771 27.6071 -13.2036 -27.7158 13.1669c-7.27205,-15.3059 -0.758268,-33.6118 14.5488,-40.8839 6.71812,-3.19134 14.015,-3.72756 20.7036,-2.02914l754.884 137.477 0.0129921 -0.0696851c16.6713,3.0378 27.7276,19.0146 24.6898,35.6859 -1.33228,7.31339 -5.15433,13.5473 -10.4339,17.9835l-472.777 455.676 0.0484252 0.0507874c-12.2008,11.7602 -31.6276,11.4024 -43.3878,-0.799607 -2.94213,-3.05315 -5.12481,-6.55985 -6.55512,-10.2827zm-200.744 -565.156l238.775 502.582 400.628 -386.136 -639.403 -116.446z"/>
    <polygon id="_333739848" class="fil1" points="617.301,947.268 517.932,1492.91 427.546,1476.23 526.915,930.59 "/>
    <path id="_333740064" class="fil1" d="M539.509 1527.85l-144.651 -26.3421c-24.9803,-4.54961 -41.4933,-28.5874 -36.8882,-53.5382 4.6004,-24.926 28.578,-41.3989 53.4969,-36.8611l144.651 26.3433c24.9803,4.54843 41.4933,28.5862 36.8882,53.5382 -4.6004,24.926 -28.578,41.3977 -53.4969,36.8599z"/>
    <path id="_333739752" class="fil1" d="M834.692 613.152c-28.2697,-0.611811 -56.9103,-0.177165 -85.6666,0.262205 -96.0851,1.46575 -193.389,2.94095 -288.632,-31.5614l127.763 268.917 246.535 -237.618z"/>
   </g>
  </g>
 </g>
 <rect class="fil2" width="2048" height="2048"/>
</svg>
